<svg id='Decoration_Crystals_24' width='24' height='24' viewBox='0 0 24 24' xmlns='http://www.w3.org/2000/svg' xmlns:xlink='http://www.w3.org/1999/xlink'><rect width='24' height='24' stroke='none' fill='#000000' opacity='0'/>


<g transform="matrix(0.83 0 0 0.83 12 12)" >
<g style="" >
<g transform="matrix(1 0 0 1 -3.02 2.7)" >
<path style="stroke: none; stroke-width: 1; stroke-dasharray: none; stroke-linecap: butt; stroke-dashoffset: 0; stroke-linejoin: miter; stroke-miterlimit: 4; fill: rgb(212,128,255); fill-rule: nonzero; opacity: 1;" transform=" translate(-8.98, -14.7)" d="M 12.5 23.5 L 9.443 23.5 L 5.463 5.90002 L 8.383 8.40002 C 8.46204 8.46398 8.51847 8.55161 8.544 8.65002 L 10 14.13 L 12.5 23.5 Z" stroke-linecap="round" />
</g>
<g transform="matrix(1 0 0 1 -6.01 2.63)" >
<path style="stroke: none; stroke-width: 1; stroke-dasharray: none; stroke-linecap: butt; stroke-dashoffset: 0; stroke-linejoin: miter; stroke-miterlimit: 4; fill: rgb(234,191,255); fill-rule: nonzero; opacity: 1;" transform=" translate(-5.99, -14.63)" d="M 9.443 23.5 L 6.5 23.5 L 5.89 21.38 L 2.564 9.70995 C 2.54486 9.64341 2.53933 9.57369 2.54775 9.50496 C 2.55617 9.43623 2.57836 9.36991 2.613 9.30995 L 4.693 5.98995 C 4.7332 5.93013 4.78496 5.87896 4.84525 5.83946 C 4.90553 5.79996 4.97311 5.77293 5.044 5.75995 C 5.16025 5.74206 5.27885 5.77082 5.374 5.83995 C 5.38763 5.84153 5.40079 5.84589 5.41266 5.85277 C 5.42453 5.85966 5.43486 5.86891 5.443 5.87995 L 5.463 5.89995 L 9.443 23.5 Z" stroke-linecap="round" />
</g>
<g transform="matrix(1 0 0 1 5.07 1.65)" >
<path style="stroke: none; stroke-width: 1; stroke-dasharray: none; stroke-linecap: butt; stroke-dashoffset: 0; stroke-linejoin: miter; stroke-miterlimit: 4; fill: rgb(201,247,202); fill-rule: nonzero; opacity: 1;" transform=" translate(-17.07, -13.65)" d="M 22.074 3.94 L 14.863 23.5 L 12.5 23.5 L 12.06 21.84 L 17.01 7.88 L 17.01 7.87 L 17.439 6.66 C 17.4765 6.557 17.5467 6.46916 17.639 6.41 L 21.428 3.87 C 21.4951 3.83015 21.57 3.80507 21.6476 3.79645 C 21.7252 3.78783 21.8037 3.79586 21.878 3.82 C 21.951 3.84594 22.0177 3.88681 22.074 3.94 L 22.074 3.94 Z" stroke-linecap="round" />
</g>
<g transform="matrix(1 0 0 1 3.12 -2.46)" >
<path style="stroke: none; stroke-width: 1; stroke-dasharray: none; stroke-linecap: butt; stroke-dashoffset: 0; stroke-linejoin: miter; stroke-miterlimit: 4; fill: rgb(102,225,255); fill-rule: nonzero; opacity: 1;" transform=" translate(-15.12, -9.54)" d="M 17.014 7.87 L 17.014 7.88 L 13.223 18.57 L 13.854 0.52 C 13.8995 0.508386 13.9461 0.501682 13.993 0.5 C 14.0658 0.500465 14.1376 0.516814 14.2034 0.547904 C 14.2692 0.578994 14.3274 0.624075 14.374 0.68 L 16.4 3.11 C 16.4612 3.18805 16.4996 3.28149 16.511 3.38 L 17.014 7.87 Z" stroke-linecap="round" />
</g>
<g transform="matrix(1 0 0 1 -0.07 -0.82)" >
<path style="stroke: none; stroke-width: 1; stroke-dasharray: none; stroke-linecap: butt; stroke-dashoffset: 0; stroke-linejoin: miter; stroke-miterlimit: 4; fill: rgb(194,243,255); fill-rule: nonzero; opacity: 1;" transform=" translate(-11.93, -11.18)" d="M 13.854 0.52002 L 13.223 18.57 L 12.064 21.84 L 10 14.13 L 10.5 4.23002 L 13.613 0.67002 C 13.6805 0.601822 13.763 0.55044 13.854 0.52002 L 13.854 0.52002 Z" stroke-linecap="round" />
</g>
<g transform="matrix(1 0 0 1 9 7.87)" >
<path style="stroke: none; stroke-width: 1; stroke-dasharray: none; stroke-linecap: butt; stroke-dashoffset: 0; stroke-linejoin: miter; stroke-miterlimit: 4; fill: rgb(102,225,255); fill-rule: nonzero; opacity: 1;" transform=" translate(-21, -19.87)" d="M 23.493 16.82 L 22.5 23.5 L 18.5 23.5 L 20.189 18.43 L 22.679 16.36 C 22.7571 16.2966 22.8526 16.2582 22.9528 16.2499 C 23.0531 16.2416 23.1536 16.2637 23.2411 16.3134 C 23.3286 16.3631 23.3991 16.438 23.4433 16.5284 C 23.4875 16.6188 23.5035 16.7204 23.489 16.82 L 23.493 16.82 Z" stroke-linecap="round" />
</g>
<g transform="matrix(1 0 0 1 -8.5 7.82)" >
<path style="stroke: none; stroke-width: 1; stroke-dasharray: none; stroke-linecap: butt; stroke-dashoffset: 0; stroke-linejoin: miter; stroke-miterlimit: 4; fill: rgb(102,225,255); fill-rule: nonzero; opacity: 1;" transform=" translate(-3.5, -19.82)" d="M 6.5 23.5 L 2.493 23.5 L 0.523998 16.79 C 0.489761 16.6816 0.493944 16.5648 0.535841 16.4591 C 0.577739 16.3534 0.654789 16.2655 0.753998 16.21 C 0.854292 16.1545 0.970617 16.1351 1.08349 16.1552 C 1.19636 16.1752 1.29892 16.2334 1.374 16.32 L 5.894 21.38 L 6.5 23.5 Z" stroke-linecap="round" />
</g>
<g transform="matrix(1 0 0 1 7.17 1.72)" >
<path style="stroke: none; stroke-width: 1; stroke-dasharray: none; stroke-linecap: butt; stroke-dashoffset: 0; stroke-linejoin: miter; stroke-miterlimit: 4; fill: rgb(120,235,123); fill-rule: nonzero; opacity: 1;" transform=" translate(-19.17, -13.72)" d="M 23.453 8.34994 C 23.483 8.44769 23.483 8.55219 23.453 8.64994 L 18.5 23.4999 L 14.863 23.4999 L 22.074 3.93994 C 22.132 3.99786 22.1731 4.07045 22.193 4.14994 L 23.453 8.34994 Z" stroke-linecap="round" />
</g>
<g transform="matrix(1 0 0 1 -4.48 2.63)" >
<path style="stroke: rgb(25,25,25); stroke-width: 1; stroke-dasharray: none; stroke-linecap: round; stroke-dashoffset: 0; stroke-linejoin: round; stroke-miterlimit: 4; fill: none; fill-rule: nonzero; opacity: 1;" transform=" translate(-7.52, -14.63)" d="M 12.5 23.5 L 8.54 8.64996 C 8.51375 8.5526 8.45867 8.46545 8.382 8.39996 L 5.441 5.87796 C 5.38633 5.8312 5.32222 5.79679 5.25304 5.77708 C 5.18386 5.75736 5.11124 5.75281 5.04013 5.76373 C 4.96903 5.77464 4.90112 5.80077 4.84104 5.84033 C 4.78096 5.87989 4.73012 5.93195 4.692 5.99296 L 2.618 9.31096 C 2.58119 9.37 2.55711 9.43607 2.5473 9.50494 C 2.53748 9.57382 2.54215 9.64399 2.561 9.71096 L 6.5 23.5" stroke-linecap="round" />
</g>
<g transform="matrix(1 0 0 1 1.51 -4.69)" >
<path style="stroke: rgb(25,25,25); stroke-width: 1; stroke-dasharray: none; stroke-linecap: round; stroke-dashoffset: 0; stroke-linejoin: round; stroke-miterlimit: 4; fill: none; fill-rule: nonzero; opacity: 1;" transform=" translate(-13.51, -7.31)" d="M 17.01 7.88306 L 16.516 3.38306 C 16.5056 3.28531 16.4667 3.19279 16.404 3.11706 L 14.375 0.680056 C 14.3287 0.624435 14.2709 0.579522 14.2056 0.548421 C 14.1402 0.517319 14.0689 0.500769 13.9966 0.499913 C 13.9242 0.499057 13.8525 0.513916 13.7865 0.543464 C 13.7204 0.573012 13.6616 0.616545 13.614 0.671056 L 10.5 4.23006 L 10 14.1301" stroke-linecap="round" />
</g>
<g transform="matrix(1 0 0 1 5.77 1.65)" >
<path style="stroke: rgb(25,25,25); stroke-width: 1; stroke-dasharray: none; stroke-linecap: round; stroke-dashoffset: 0; stroke-linejoin: round; stroke-miterlimit: 4; fill: none; fill-rule: nonzero; opacity: 1;" transform=" translate(-17.77, -13.65)" d="M 18.5 23.5 L 23.45 8.64995 C 23.4807 8.55231 23.4807 8.4476 23.45 8.34996 L 22.189 4.14995 C 22.1665 4.07516 22.1268 4.00668 22.073 3.95001 C 22.0193 3.89333 21.953 3.85004 21.8795 3.82359 C 21.806 3.79715 21.7273 3.78829 21.6498 3.79773 C 21.5722 3.80717 21.498 3.83465 21.433 3.87795 L 17.633 6.41095 C 17.5436 6.4713 17.4756 6.55849 17.439 6.65995 L 12.075 21.8" stroke-linecap="round" />
</g>
<g transform="matrix(1 0 0 1 9.84 7.87)" >
<path style="stroke: rgb(25,25,25); stroke-width: 1; stroke-dasharray: none; stroke-linecap: round; stroke-dashoffset: 0; stroke-linejoin: round; stroke-miterlimit: 4; fill: none; fill-rule: nonzero; opacity: 1;" transform=" translate(-21.84, -19.87)" d="M 20.187 18.4399 L 22.68 16.3639 C 22.7578 16.2989 22.8536 16.2591 22.9546 16.2498 C 23.0556 16.2405 23.1571 16.2621 23.2455 16.3118 C 23.3339 16.3615 23.4051 16.4369 23.4497 16.528 C 23.4943 16.6191 23.5101 16.7216 23.495 16.8219 L 22.5 23.4999" stroke-linecap="round" />
</g>
<g transform="matrix(1 0 0 1 -8.8 7.82)" >
<path style="stroke: rgb(25,25,25); stroke-width: 1; stroke-dasharray: none; stroke-linecap: round; stroke-dashoffset: 0; stroke-linejoin: round; stroke-miterlimit: 4; fill: none; fill-rule: nonzero; opacity: 1;" transform=" translate(-3.2, -19.82)" d="M 2.5 23.5 L 0.519999 16.789 C 0.487835 16.68 0.493751 16.5633 0.536774 16.4582 C 0.579797 16.353 0.65736 16.2656 0.756685 16.2104 C 0.85601 16.1552 0.971173 16.1355 1.0832 16.1545 C 1.19523 16.1735 1.29744 16.2301 1.373 16.315 L 5.894 21.38" stroke-linecap="round" />
</g>
</g>
</g>
</svg>